<?xml version="1.0" standalone="no"?>
<!DOCTYPE svg PUBLIC "-//W3C//DTD SVG 20010904//EN"
 "http://www.w3.org/TR/2001/REC-SVG-20010904/DTD/svg10.dtd">
<svg version="1.0" xmlns="http://www.w3.org/2000/svg"
 width="81.000000pt" height="80.000000pt" viewBox="0 0 81.000000 80.000000"
 preserveAspectRatio="xMidYMid meet">

<g transform="translate(0.000000,80.000000) scale(0.100000,-0.100000)"
fill="#000000" stroke="none">
<path d="M0 400 l0 -400 405 0 405 0 0 400 0 400 -405 0 -405 0 0 -400z m615
235 c0 -22 -6 -30 -22 -35 -21 -5 -19 -8 22 -51 43 -46 44 -46 61 -28 28 31
35 9 32 -92 l-3 -94 -80 -6 c-44 -3 -70 -6 -57 -7 41 -4 36 -10 -103 -140 -65
-61 -50 -65 -162 43 -71 69 -86 93 -60 97 6 1 -17 4 -53 7 l-65 6 -3 60 c-2
33 0 75 3 93 6 31 8 33 23 19 14 -13 19 -13 30 -1 6 7 12 17 12 21 0 5 13 23
29 40 26 28 27 32 10 36 -19 5 -27 46 -12 61 4 3 95 5 202 4 l196 -3 0 -30z"/>
<path d="M302 417 c-22 -23 -22 -24 -3 -41 18 -17 19 -16 23 23 2 23 3 41 3
41 -1 0 -11 -10 -23 -23z"/>
<path d="M508 390 c5 -34 6 -35 21 -17 8 11 7 18 -7 30 -18 16 -18 15 -14 -13z"/>
</g>
</svg>
